<svg xmlns="http://www.w3.org/2000/svg" width="512" height="512" viewBox="0 0 512 512" version="1.1">
	<path d="M 165.500 105.935 L 65.500 106.500 60.784 108.823 C 54.625 111.856, 46.652 120.639, 44.606 126.643 C 43.171 130.854, 43 142.629, 43 237.160 L 43 342.964 46.963 351.542 C 51.198 360.709, 52.938 362.669, 60 366.230 C 63.966 368.231, 66.437 368.559, 80.829 369 L 97.159 369.500 98.927 374.528 C 109.225 403.818, 145.278 415.351, 171.240 397.660 C 178.795 392.512, 186.057 383.293, 189.074 375.018 L 191.274 368.983 247.214 369.242 L 303.153 369.500 304.991 374.720 C 309.188 386.638, 320.552 398.278, 332.757 403.158 C 337.614 405.101, 340.351 405.458, 350.500 405.477 C 362.278 405.500, 362.642 405.432, 370.186 401.830 C 382.567 395.917, 391.260 386.485, 395.605 374.250 L 397.469 369 422.485 368.994 C 436.631 368.991, 449.118 368.539, 451.225 367.954 C 456.789 366.409, 462.910 361.182, 466.398 355 L 469.500 349.500 469.797 303.830 C 470.046 265.526, 469.857 257.595, 468.631 254.658 C 467.511 251.978, 464.717 249.513, 456.711 244.141 L 446.254 237.125 434.528 207.813 C 420.514 172.777, 418.765 170.009, 407.297 164.715 C 402.695 162.590, 401.132 162.487, 368.882 162.190 L 335.264 161.881 334.743 146.690 C 334.388 136.364, 333.708 130.104, 332.616 127.140 C 329.348 118.262, 321.831 110.730, 312.860 107.343 C 307.379 105.273, 298.221 105.186, 165.500 105.935 M 70.315 128.455 C 63.639 131.377, 64 125.037, 64 239.262 C 64 341.899, 64.014 342.638, 66.039 344.811 C 67.955 346.868, 68.949 347, 82.570 347 C 95.492 347, 97.124 346.810, 97.623 345.250 C 100.153 337.352, 105.548 328.708, 111.233 323.445 C 130.358 305.739, 158.354 305.796, 176.999 323.580 C 182.334 328.670, 188.476 338.583, 190.429 345.258 C 190.913 346.913, 194.247 347.001, 247.023 346.758 L 303.103 346.500 305.474 340.667 C 306.778 337.458, 309.013 333.067, 310.442 330.909 L 313.039 326.984 312.769 230.742 C 312.481 127.665, 312.716 132.300, 307.602 128.898 C 304.454 126.804, 75.065 126.376, 70.315 128.455 M 172.230 166.015 C 147.133 172.591, 126.176 193.601, 119.376 219 C 116.996 227.890, 116.944 246.240, 119.274 255 C 126.614 282.602, 148.756 303.764, 176.208 309.414 C 208.843 316.130, 242.418 299.550, 257.030 269.500 C 262.327 258.608, 264.306 249.767, 264.307 237 C 264.308 216.601, 257.466 200.395, 242.540 185.446 C 234.926 177.820, 232.002 175.656, 224 171.723 C 218.775 169.155, 211.575 166.374, 208 165.542 C 198.751 163.390, 181.371 163.620, 172.230 166.015 M 335 248.045 L 335 312.091 338.750 311.295 C 345.889 309.781, 360.087 310.528, 366.179 312.738 C 379.250 317.480, 389.541 327.381, 394.763 340.238 L 397.500 346.975 421.715 346.988 C 444.639 346.999, 445.985 346.897, 446.965 345.066 C 447.591 343.896, 448 334.209, 448 320.566 L 448 298 431.065 298 C 421.751 298, 412.976 297.561, 411.566 297.025 C 408.589 295.893, 405.009 290.533, 405.004 287.200 C 404.998 283.633, 407.735 279.188, 410.967 277.517 C 413.253 276.335, 417.666 276, 430.950 276 L 448 276 447.987 270.250 L 447.974 264.500 440.672 259.750 L 433.370 255 401.108 255 L 368.846 255 365.997 252.150 C 362.597 248.751, 362.701 249.323, 359.495 216.500 C 358.098 202.200, 356.720 189.037, 356.432 187.250 L 355.909 184 345.455 184 L 335 184 335 248.045 M 378.515 186.750 C 378.770 188.262, 379.924 199.175, 381.080 211 C 382.235 222.825, 383.300 232.623, 383.446 232.773 C 383.592 232.923, 392.058 232.923, 402.259 232.773 L 420.807 232.500 412.415 211.500 C 407.800 199.950, 403.519 189.537, 402.902 188.360 C 401.137 184.994, 397.621 184, 387.478 184 L 378.050 184 378.515 186.750 M 183.500 186.041 C 154.193 189.883, 133.981 218.835, 140.105 248.201 C 142.789 261.073, 152.740 274.852, 164.436 281.895 C 189.993 297.282, 224.427 286.874, 237.379 259.846 C 244.668 244.636, 244.516 229.257, 236.926 214.093 C 227.068 194.396, 205.630 183.140, 183.500 186.041 M 203.400 216.890 C 201.255 218.479, 196.153 223.187, 192.063 227.352 L 184.626 234.924 179.856 230.462 C 175.867 226.731, 174.436 226, 171.120 226 C 163.936 226, 158.390 233.351, 160.517 240.053 C 160.906 241.278, 164.789 245.994, 169.147 250.533 C 183.354 265.331, 185.167 265.084, 204.865 245.663 C 220.538 230.210, 222.768 226.856, 220.977 221.430 C 218.456 213.792, 210.392 211.709, 203.400 216.890 M 134.627 333.468 C 116.619 339.888, 111.893 364.636, 126.207 377.568 C 128.415 379.562, 131.859 381.900, 133.860 382.763 C 138.544 384.781, 149.422 384.796, 154.073 382.791 C 175.775 373.434, 175.153 341.033, 153.128 333.528 C 147.624 331.652, 139.792 331.627, 134.627 333.468 M 340 334.079 C 327.148 339.889, 321.017 353.890, 325.528 367.128 C 329.059 377.491, 339.151 384.419, 350.563 384.311 C 358.307 384.238, 364.398 381.516, 369.534 375.831 C 374.417 370.426, 376.234 365.748, 376.308 358.389 C 376.422 347.166, 369.421 337.035, 359.128 333.528 C 352.934 331.417, 345.407 331.634, 340 334.079" stroke="none" fill="#000000" fill-rule="evenodd"/>
</svg>