<svg xmlns="http://www.w3.org/2000/svg" width="1500" height="1600" viewBox="0 0 1500 1600" version="1.1">
	<path d="M 751.835 253.664 C 750.919 253.911, 749.831 254.876, 749.416 255.807 C 749.002 256.738, 748.401 268.750, 748.081 282.500 L 747.500 307.500 737 308.174 C 687.866 311.331, 667.550 314.243, 633.500 323.009 C 575.808 337.863, 517.762 365.459, 470.376 400.560 C 448.790 416.550, 419.376 442.653, 418.354 446.726 C 418.040 447.977, 417.235 449, 416.566 449 C 414.617 449, 411 453.429, 411 455.814 C 411 457.467, 410.403 458, 408.552 458 C 406.654 458, 403.883 460.640, 396.222 469.750 C 346.438 528.951, 311.621 595.865, 294.599 665.059 C 285.264 703.009, 281.560 734.294, 281.524 775.500 C 281.434 877.796, 309.915 967.830, 368.286 1049.768 C 374.670 1058.729, 376.691 1060.916, 378.157 1060.450 C 380.094 1059.835, 380.159 1059.941, 380.424 1064.115 C 380.516 1065.568, 382.791 1069.478, 385.545 1072.914 C 389.793 1078.217, 390.871 1079.028, 393.104 1078.603 C 396.725 1077.915, 398.466 1079.828, 396.348 1082.168 C 394.826 1083.850, 395.095 1084.388, 400.612 1090.691 C 409.254 1100.566, 430.235 1121.588, 440 1130.155 C 488.783 1172.957, 543.812 1204.047, 606.500 1224.222 C 657.983 1240.791, 696.848 1247.056, 748.500 1247.113 C 800.227 1247.170, 839.634 1241.171, 890.500 1225.496 C 910.317 1219.388, 926.985 1212.651, 953 1200.232 C 989.074 1183.011, 992.180 1180.918, 997.634 1170.156 C 1000.249 1164.996, 1000.500 1163.579, 1000.496 1154 C 1000.493 1145.103, 1000.131 1142.699, 998.123 1138.250 C 995.487 1132.410, 994.514 1131.815, 993.594 1135.482 C 992.511 1139.795, 983.962 1148, 980.550 1148 C 978.851 1148, 980.328 1144.032, 982.250 1143.432 C 985.306 1142.478, 990 1137.450, 990 1135.132 C 990 1134.094, 989.283 1132.650, 988.406 1131.922 C 987.056 1130.802, 986.077 1131.013, 982.009 1133.300 C 976.061 1136.643, 973.014 1136.708, 970.052 1133.555 C 967.002 1130.309, 967.914 1126.723, 973.026 1121.861 C 977.661 1117.451, 977.068 1117, 966.628 1117 C 955.962 1117, 949.555 1119.061, 928 1129.424 C 878.981 1152.993, 839.303 1164.390, 788.500 1169.496 C 770.943 1171.260, 733.917 1171.520, 716 1170.004 C 622.856 1162.123, 539.857 1122.773, 470.390 1053.559 C 453.878 1037.108, 446.313 1028.454, 433.953 1011.882 C 418.458 991.107, 407.128 972.475, 396.147 949.710 C 391.178 939.407, 390.080 936.842, 383.863 921 C 373.988 895.842, 366.392 866.679, 361.071 833.500 C 355.496 798.738, 355.678 746.801, 361.492 713.356 C 365.630 689.558, 372.679 662.527, 378.796 647 C 379.338 645.625, 380.483 642.700, 381.340 640.500 C 390.451 617.114, 405.499 587.629, 419.363 566 C 451.174 516.373, 486.841 479.651, 533 449.002 C 578.661 418.684, 637.248 396.802, 697.500 387.562 C 709.454 385.729, 746.828 382.775, 748.102 383.563 C 748.596 383.868, 749.010 393.654, 749.022 405.309 C 749.041 424.076, 749.265 426.986, 750.973 430.750 C 752.762 434.691, 753.185 435, 756.794 435 C 758.936 435, 762.547 433.988, 764.827 432.750 C 770.180 429.841, 849.969 362.090, 853.929 357.090 C 859.786 349.695, 860.414 344.369, 856.317 336.841 C 854.070 332.712, 847.482 326.850, 815.702 300.706 C 794.840 283.543, 773.645 266.070, 768.604 261.878 C 759.876 254.620, 755.758 252.602, 751.835 253.664 M 976 379.428 C 962.159 383.269, 951.872 394.804, 948.958 409.750 C 947.999 414.671, 948 417.324, 948.965 422.225 C 951.267 433.929, 955.774 439.953, 970.415 450.901 C 989.839 465.425, 997.395 468.581, 1010.872 467.801 C 1029.641 466.715, 1043.776 451.956, 1044.810 432.367 C 1045.615 417.090, 1041.210 409.190, 1025.268 397.324 C 1000.944 379.218, 990.468 375.413, 976 379.428 M 422.926 456.250 C 422.885 456.387, 422.655 457.625, 422.414 459 C 421.673 463.238, 421.236 463.789, 418.068 464.485 C 413.864 465.408, 414.019 468, 418.277 468 C 423.587 468, 426 465.639, 426 460.443 C 426 457.160, 425.608 456, 424.500 456 C 423.675 456, 422.967 456.113, 422.926 456.250 M 1084.999 478.854 C 1079.977 479.930, 1071.433 484.813, 1066.936 489.178 C 1062.320 493.658, 1058.513 500.835, 1056.420 509.004 C 1055.021 514.465, 1055.036 515.514, 1056.589 521.239 C 1058.770 529.278, 1062.476 536.289, 1070.472 547.500 C 1083.733 566.094, 1090.684 571.723, 1103.250 574.041 C 1113.485 575.929, 1126.003 572.167, 1134.697 564.592 C 1139.985 559.985, 1145.609 548.981, 1146.557 541.387 C 1147.930 530.403, 1144.402 521.134, 1132.516 504.500 C 1122.715 490.783, 1117.886 485.751, 1111.003 482.082 C 1105.700 479.256, 1103.574 478.716, 1096.639 478.434 C 1092.163 478.252, 1086.924 478.441, 1084.999 478.854 M 668.254 494.535 C 665.463 496.489, 663.769 500.479, 656.564 522.054 C 649.535 543.107, 649.600 543.649, 659.750 548.466 C 663.188 550.097, 666 551.867, 666 552.398 C 666 552.930, 659.587 572.521, 651.750 595.933 L 637.500 638.500 637.501 651 C 637.502 663.042, 637.620 663.738, 640.703 670 C 644.076 676.849, 645.546 678.713, 686 727.426 C 700.025 744.314, 712.269 759.565, 713.208 761.316 C 718.415 771.022, 710.796 785.708, 699.598 787.550 C 697.344 787.920, 687.850 789.998, 678.500 792.167 C 669.150 794.335, 650.475 798.540, 637 801.510 C 623.525 804.480, 609.804 807.843, 606.510 808.984 C 589.009 815.043, 574.235 828.892, 567.056 845.968 C 565.791 848.975, 560.724 863.313, 555.795 877.829 C 550.866 892.346, 545.965 906.249, 544.903 908.726 C 543.141 912.837, 542.736 913.173, 540.237 912.594 C 529.588 910.127, 525.735 910.678, 523.508 914.985 C 521.099 919.642, 509.750 954.114, 509.750 956.772 C 509.750 962.995, 512.211 964.654, 530.640 970.850 C 537.163 973.043, 557.125 979.842, 575 985.960 C 592.875 992.077, 612.675 998.823, 619 1000.951 C 625.325 1003.079, 649.175 1011.182, 672 1018.959 C 694.825 1026.735, 719.125 1034.917, 726 1037.143 C 732.875 1039.368, 740.525 1042.002, 743 1042.997 C 745.475 1043.992, 749.750 1045.493, 752.500 1046.333 C 755.250 1047.172, 771.450 1052.655, 788.500 1058.516 C 828.441 1072.247, 830.791 1073, 833.696 1073 C 836.926 1073, 839.696 1071.437, 841.094 1068.824 C 843.594 1064.153, 854.983 1029.295, 854.991 1026.289 C 855.002 1022.435, 852.427 1019.761, 845.750 1016.694 C 843.138 1015.494, 841 1014.024, 841 1013.428 C 841 1012.832, 846.416 995.979, 853.035 975.977 C 866.299 935.897, 867.805 929.195, 866.067 917.996 C 864.199 905.955, 860.865 900.806, 834.267 868.880 C 785.163 809.942, 786.307 811.638, 789.044 801.781 C 790.259 797.406, 794.141 792.495, 797.936 790.533 C 800.813 789.045, 824.193 783.561, 874.500 772.574 C 892.685 768.602, 899.555 766.421, 907.918 761.963 C 919.931 755.560, 930.426 743.471, 936.533 729 C 939.383 722.247, 960.876 660.215, 961.745 656.235 C 962.455 652.981, 963.291 652.760, 969.941 654.068 C 977.479 655.551, 980.561 654.770, 983.002 650.757 C 985.663 646.381, 997.007 611.971, 996.968 608.394 C 996.908 602.927, 994.417 601.259, 978 595.688 C 972.225 593.728, 950.850 586.454, 930.500 579.524 C 910.150 572.594, 886.300 564.481, 877.500 561.495 C 868.700 558.508, 842.825 549.719, 820 541.963 C 797.175 534.207, 774.675 526.583, 770 525.021 C 765.325 523.459, 742.200 515.616, 718.612 507.591 C 695.024 499.566, 674.536 493, 673.085 493 C 671.633 493, 669.459 493.691, 668.254 494.535 M 696.191 562.374 C 695.725 562.993, 689.143 582.158, 681.565 604.962 C 666.603 649.984, 666.697 649.511, 670.831 659.063 C 671.887 661.503, 676.978 668.450, 682.145 674.500 C 687.312 680.550, 696.550 691.575, 702.674 699 C 708.797 706.425, 720.372 720.150, 728.395 729.500 C 736.418 738.850, 742.986 747.288, 742.991 748.250 C 742.996 749.212, 743.472 750, 744.049 750 C 745.772 750, 748.954 758.189, 748.978 762.681 C 748.991 765.207, 747.261 771.541, 744.608 778.681 C 742.192 785.182, 739.886 792.057, 739.482 793.960 C 737.637 802.665, 733.202 809.165, 726.779 812.576 C 725.282 813.371, 720.107 814.903, 715.279 815.981 C 710.451 817.059, 688.950 821.827, 667.500 826.578 C 646.050 831.329, 625.236 836.049, 621.246 837.068 C 609.236 840.135, 601.944 845.494, 598.383 853.871 C 595.348 861.011, 585.628 886.747, 580.772 900.500 C 578.054 908.200, 575.139 916.448, 574.294 918.829 C 573.434 921.253, 573.141 923.507, 573.629 923.951 C 574.108 924.387, 583.950 927.920, 595.500 931.802 C 607.050 935.685, 636.525 945.679, 661 954.012 C 685.475 962.346, 711.350 971.134, 718.500 973.543 C 725.650 975.951, 748.780 983.789, 769.901 990.961 C 791.022 998.132, 808.835 1004, 809.486 1004 C 810.139 1004, 813.852 994.462, 817.758 982.750 C 821.656 971.063, 826.963 955.650, 829.550 948.500 C 837.965 925.247, 836.622 918.957, 818.875 898.500 C 806.017 883.679, 760.253 828.637, 757.260 824.395 C 754.500 820.481, 753.559 814.664, 754.852 809.500 C 756.696 802.134, 767.101 772.530, 768.735 770 C 770.592 767.125, 772.369 765.578, 776.267 763.445 C 778.501 762.223, 829.656 750.318, 862.500 743.377 C 886.227 738.362, 893.459 735.424, 900.438 727.963 C 906.546 721.433, 907.592 719.055, 918.473 686.966 C 930.333 651.986, 933.119 643.001, 932.441 641.905 C 932.152 641.437, 929.122 640.172, 925.708 639.093 C 922.293 638.015, 902.850 631.447, 882.500 624.499 C 862.150 617.551, 842.350 610.808, 838.500 609.515 C 822.003 603.975, 707.782 565.045, 701.270 562.743 C 698.176 561.649, 696.812 561.550, 696.191 562.374 M 1148.892 610.306 C 1141.686 613.333, 1137.873 616.084, 1133.659 621.299 C 1129.488 626.461, 1128.228 628.840, 1126.491 634.829 C 1123.654 644.611, 1123.719 647.858, 1127.006 660.500 C 1134.999 691.242, 1138.620 697.455, 1153 705.106 C 1156.962 707.214, 1158.816 707.500, 1168.500 707.500 C 1178.310 707.500, 1180.095 707.216, 1185 704.875 C 1192.773 701.164, 1198.115 696.138, 1201.968 688.908 C 1204.867 683.470, 1205.352 681.493, 1205.729 673.582 C 1206.097 665.864, 1205.717 662.773, 1203.202 653 C 1196.582 627.282, 1190.428 617.216, 1177.791 611.430 C 1168.926 607.371, 1156.986 606.906, 1148.892 610.306 M 1172.244 754.547 C 1165.801 756.282, 1162.892 758.033, 1156.669 763.926 C 1147.837 772.289, 1145.386 779.705, 1144.068 802.052 C 1142.628 826.490, 1144.941 835.161, 1155.501 844.894 C 1158.055 847.248, 1162.699 850.338, 1165.822 851.762 C 1170.654 853.964, 1172.915 854.350, 1181 854.354 C 1189.417 854.358, 1191.170 854.032, 1196.382 851.499 C 1199.617 849.927, 1204.374 846.531, 1206.952 843.952 C 1216.260 834.645, 1219.335 823.203, 1219.439 797.500 C 1219.499 782.723, 1219.454 782.402, 1216.379 775.895 C 1207.879 757.911, 1190.668 749.586, 1172.244 754.547 M 1141.878 898.395 C 1128.521 902.247, 1116.592 917.739, 1109.036 941.051 C 1105.202 952.881, 1104.603 957.389, 1105.915 964.562 C 1109.373 983.475, 1123.677 996.071, 1142.052 996.384 C 1145.780 996.448, 1149.142 996.190, 1149.521 995.811 C 1149.901 995.432, 1148.752 993.088, 1146.967 990.603 C 1144.046 986.536, 1143.841 985.806, 1144.908 983.293 C 1147.384 977.462, 1151.706 974, 1156.508 974 C 1158.481 974, 1159.063 974.441, 1158.813 975.750 C 1158.630 976.712, 1157.509 977.639, 1156.322 977.809 C 1153.452 978.220, 1149 982.439, 1149 984.749 C 1149 985.764, 1150.747 988.300, 1152.881 990.384 L 1156.763 994.174 1159.996 992.502 C 1164.538 990.153, 1172.004 983.063, 1171.978 981.123 C 1171.967 980.230, 1167.498 975.025, 1162.048 969.555 C 1153.844 961.322, 1152.303 959.302, 1153.097 957.819 C 1153.932 956.259, 1155.077 957.092, 1161.950 964.258 C 1166.293 968.784, 1170.200 972.134, 1170.633 971.701 C 1171.066 971.268, 1171.298 967.636, 1171.149 963.630 C 1170.949 958.277, 1171.256 956.032, 1172.306 955.161 C 1173.489 954.179, 1173.841 954.620, 1174.356 957.738 C 1174.698 959.807, 1174.983 963.413, 1174.989 965.750 C 1174.998 969.247, 1175.335 970, 1176.890 970 C 1178.716 970, 1182.925 961.251, 1188.515 945.837 C 1191.202 938.424, 1190.270 925.158, 1186.537 917.710 C 1180.652 905.965, 1167.769 897.886, 1154.077 897.355 C 1149.811 897.190, 1144.480 897.644, 1141.878 898.395 M 427.457 1016.863 C 419.878 1021.485, 416.883 1028.883, 420.946 1032.946 C 423.098 1035.098, 426.889 1034.592, 431.191 1031.579 C 434.023 1029.595, 438.882 1029.529, 439.625 1031.465 C 440.390 1033.459, 436.708 1038.399, 432.533 1040.980 C 430.312 1042.352, 429.302 1043.622, 429.669 1044.580 C 430.401 1046.487, 433.503 1045.556, 437.500 1042.231 C 443.784 1037.003, 445.546 1031.652, 442.443 1027.223 C 440.376 1024.271, 437.064 1024.407, 431.197 1027.682 C 425.756 1030.720, 423 1030.350, 423 1026.582 C 423 1024.148, 427.224 1020.097, 431.233 1018.686 C 432.287 1018.315, 432.735 1017.473, 432.376 1016.538 C 431.624 1014.577, 431.155 1014.608, 427.457 1016.863 M 1064.976 1025.261 C 1057.026 1028.617, 1050.545 1033.341, 1042 1042.008 C 1034.760 1049.351, 1027 1060.756, 1027 1064.053 C 1027 1064.932, 1028.139 1066.722, 1029.531 1068.030 L 1032.063 1070.408 1036.242 1066.228 L 1040.421 1062.049 1037.711 1059.220 C 1035.138 1056.535, 1034.060 1053, 1035.813 1053 C 1036.260 1053, 1037.919 1054.350, 1039.500 1056 C 1042.796 1059.441, 1043.657 1059.621, 1046.127 1057.385 C 1047.772 1055.896, 1048.044 1055.901, 1049.590 1057.447 C 1051.160 1059.017, 1051.139 1059.215, 1049.258 1060.532 C 1047.387 1061.842, 1045.414 1066.135, 1046.853 1065.765 C 1047.209 1065.673, 1050.136 1068.210, 1053.357 1071.403 C 1058.392 1076.393, 1059.607 1077.129, 1062.020 1076.646 C 1063.859 1076.278, 1065.254 1076.602, 1066.070 1077.585 C 1067.711 1079.562, 1066.305 1080.914, 1061.856 1081.636 C 1058.568 1082.170, 1058.008 1081.797, 1051.287 1074.600 C 1047.383 1070.420, 1043.556 1067, 1042.782 1067 C 1040.759 1067, 1035.644 1072.636, 1036.256 1074.190 C 1036.540 1074.911, 1038.701 1077.911, 1041.058 1080.859 C 1045.129 1085.950, 1045.532 1086.192, 1049.132 1085.709 C 1051.782 1085.354, 1053.298 1085.654, 1054.173 1086.709 C 1056.717 1089.774, 1048.672 1092.501, 1044.178 1090.095 C 1043.249 1089.598, 1040.691 1086.669, 1038.494 1083.586 C 1036.048 1080.154, 1033.531 1077.759, 1032 1077.407 C 1027.315 1076.331, 1026.859 1076.019, 1027.408 1074.255 C 1028.135 1071.918, 1026.565 1069.569, 1024.743 1070.268 C 1023.941 1070.576, 1022.996 1072.269, 1022.644 1074.031 C 1021.939 1077.555, 1021.840 1077.388, 1031.326 1088.609 C 1039.602 1098.399, 1039.565 1098.287, 1035.881 1102.482 C 1032.788 1106.005, 1032.770 1106.088, 1034.621 1108.137 C 1037.105 1110.886, 1044.193 1114.419, 1051.468 1116.534 C 1064.641 1120.363, 1075.482 1116.188, 1089.706 1101.807 C 1109.752 1081.541, 1115 1072.983, 1115 1060.560 C 1115 1056.007, 1112.817 1046.610, 1111.408 1045.101 C 1111.204 1044.882, 1109.341 1045.861, 1107.268 1047.277 C 1105.196 1048.692, 1102.616 1049.997, 1101.536 1050.175 C 1098.943 1050.604, 1098.189 1047.234, 1100.676 1046.334 C 1104.333 1045.012, 1108 1041.817, 1108 1039.955 C 1108 1038.905, 1106.925 1037.342, 1105.611 1036.481 C 1103.402 1035.033, 1102.913 1035.077, 1099.090 1037.070 C 1095.513 1038.934, 1094.559 1039.060, 1092.003 1038.001 C 1088.559 1036.574, 1087.069 1031.609, 1089.001 1027.998 C 1090.841 1024.560, 1088.972 1023.654, 1079.258 1023.273 C 1071.836 1022.981, 1069.657 1023.285, 1064.976 1025.261 M 1092.384 1028.442 C 1091.125 1031.723, 1092.441 1033.498, 1096.214 1033.604 C 1100.951 1033.737, 1101.775 1031.688, 1098.050 1029.036 C 1094.674 1026.632, 1093.140 1026.471, 1092.384 1028.442 M 409.299 1032.250 C 406.707 1035.096, 405 1038.388, 405 1040.541 C 405 1042.505, 418.747 1057, 420.610 1057 C 423.782 1057, 422.670 1054.442, 416.691 1047.983 C 413.141 1044.149, 409.989 1040.065, 409.686 1038.907 C 409.383 1037.749, 409.403 1037.070, 409.731 1037.397 C 410.585 1038.252, 414.159 1032.067, 413.463 1030.940 C 412.561 1029.481, 411.524 1029.808, 409.299 1032.250 M 1078.138 1033.537 C 1072.299 1038.450, 1072.684 1039.996, 1082.852 1052.469 C 1086.452 1056.886, 1089.523 1060.677, 1089.675 1060.893 C 1089.827 1061.108, 1090.619 1060.731, 1091.435 1060.054 C 1092.706 1058.999, 1092.186 1057.910, 1087.779 1052.412 C 1084.953 1048.885, 1082.316 1046, 1081.918 1046 C 1081.521 1046, 1080.690 1044.551, 1080.073 1042.779 C 1079.111 1040.020, 1079.240 1039.166, 1080.975 1036.820 C 1084.689 1031.797, 1082.801 1029.613, 1078.138 1033.537 M 1057.687 1047.805 C 1052.968 1052.731, 1054.132 1056.579, 1063.268 1066.250 C 1068.526 1071.816, 1070.200 1073, 1072.807 1073 C 1076.611 1073, 1081.518 1068.790, 1082.423 1064.750 C 1082.935 1062.462, 1082.702 1062, 1081.038 1062 C 1079.733 1062, 1078.818 1062.878, 1078.404 1064.526 C 1077.199 1069.326, 1072.586 1070.268, 1068.308 1066.589 L 1065.505 1064.177 1068.002 1062.201 C 1069.376 1061.114, 1071.990 1058.919, 1073.811 1057.322 L 1077.121 1054.419 1072.976 1049.710 C 1069.264 1045.493, 1068.387 1045, 1064.602 1045 C 1061.275 1045, 1059.802 1045.598, 1057.687 1047.805 M 391.734 1047.837 C 387.676 1050.513, 386.068 1053.074, 386.032 1056.917 C 386.005 1059.798, 386.992 1061.325, 392.333 1066.667 C 397.659 1071.993, 399.214 1073, 402.111 1073 C 404.005 1073, 406.558 1072.298, 407.783 1071.439 C 412.033 1068.463, 415.161 1058.957, 411.418 1060.393 C 410.548 1060.727, 409.648 1061, 409.418 1061 C 409.188 1061, 409 1061.800, 409 1062.777 C 409 1063.755, 408.282 1065.580, 407.405 1066.832 C 406.161 1068.608, 405.028 1069.042, 402.256 1068.805 C 400.233 1068.631, 398.235 1067.754, 397.618 1066.768 C 396.716 1065.328, 397.458 1064.096, 402.016 1059.464 L 407.500 1053.892 403.289 1049.946 C 398.626 1045.577, 395.913 1045.081, 391.734 1047.837 M 1060.557 1051.223 C 1058.512 1054.142, 1058.590 1055.209, 1061.079 1058.373 L 1063.158 1061.016 1067.058 1058.258 C 1071.485 1055.126, 1072.002 1052.815, 1068.777 1050.557 C 1065.641 1048.360, 1062.377 1048.624, 1060.557 1051.223 M 395.259 1050.765 C 392.794 1051.174, 390 1054.524, 390 1057.069 C 390 1057.963, 390.875 1059.703, 391.944 1060.935 L 393.888 1063.177 398.109 1059.239 C 400.908 1056.628, 402.125 1054.768, 401.721 1053.716 C 400.917 1051.620, 398.038 1050.305, 395.259 1050.765 M 1021.995 1086.595 C 1021.987 1089.563, 1025.150 1097.655, 1027.441 1100.528 C 1029.636 1103.281, 1032.336 1103.174, 1033.442 1100.290 C 1034.026 1098.769, 1028.268 1090.362, 1023.993 1086.494 C 1022.069 1084.752, 1022 1084.756, 1021.995 1086.595 M 979 1121.706 C 976.092 1122.769, 973 1126.376, 973 1128.706 C 973 1132.104, 975.584 1132.602, 980.087 1130.071 C 982.245 1128.858, 985.358 1127.828, 987.005 1127.781 C 990.790 1127.673, 990.773 1126.829, 986.923 1123.589 C 983.911 1121.055, 982.015 1120.604, 979 1121.706 M 577.455 1185.455 C 574.278 1188.631, 573.934 1195, 576.940 1195 C 578.459 1195, 578.946 1194.188, 579.190 1191.250 C 579.473 1187.826, 579.783 1187.473, 582.750 1187.187 C 585.190 1186.951, 586 1186.391, 586 1184.937 C 586 1182.013, 580.567 1182.342, 577.455 1185.455 M 590 1196.878 C 590 1200.165, 588.585 1201.658, 585 1202.154 C 583.252 1202.396, 582.398 1203.219, 582.162 1204.891 C 581.895 1206.777, 582.176 1207.146, 583.494 1206.641 C 584.412 1206.288, 586.027 1206, 587.082 1206 C 590.348 1206, 593 1202.415, 593 1198 C 593 1195.111, 592.583 1194, 591.500 1194 C 590.514 1194, 590 1194.986, 590 1196.878 M -0 1550.002 L 0 1600.001 750.250 1599.751 L 1500.500 1599.500 1500.759 1549.500 L 1501.018 1499.500 750.509 1499.751 L -0 1500.003 -0 1550.002 M 0.464 1550 C 0.464 1577.775, 0.592 1589.138, 0.749 1575.250 C 0.906 1561.363, 0.906 1538.638, 0.749 1524.750 C 0.592 1510.862, 0.464 1522.225, 0.464 1550 M 70.240 1540.250 L 70.500 1554.500 73 1554.500 C 75.443 1554.500, 75.503 1554.321, 75.640 1546.627 C 75.785 1538.544, 76.722 1536.598, 79.909 1537.770 C 82.532 1538.733, 82.969 1540.160, 82.985 1547.820 C 82.999 1554.834, 83.094 1555.126, 85.250 1554.820 C 87.393 1554.515, 87.499 1554.077, 87.471 1545.638 C 87.445 1537.581, 87.230 1536.605, 85.110 1534.888 C 83.828 1533.850, 81.253 1533, 79.389 1533 C 76.182 1533, 76 1532.812, 76 1529.500 C 76 1526.275, 75.763 1526, 72.990 1526 L 69.981 1526 70.240 1540.250 M 112.750 1527.080 C 111.787 1527.641, 111 1529.202, 111 1530.550 C 111 1531.897, 110.550 1533, 110 1533 C 109.450 1533, 109 1534.125, 109 1535.500 C 109 1536.875, 109.450 1538, 110 1538 C 110.563 1538, 111 1540.809, 111 1544.427 C 111 1550.180, 111.277 1551.072, 113.635 1552.927 C 116.803 1555.420, 119.831 1555.604, 120.694 1553.356 C 121.113 1552.263, 120.433 1551.062, 118.662 1549.773 C 116.403 1548.127, 116 1547.089, 116 1542.917 L 116 1538 119.500 1538 L 123 1538 123 1544.427 C 123 1550.214, 123.268 1551.066, 125.691 1552.972 C 127.172 1554.136, 129.309 1554.956, 130.441 1554.794 C 133.397 1554.372, 133.633 1550.746, 130.786 1549.500 C 128.889 1548.670, 128.449 1547.606, 128.198 1543.250 C 127.908 1538.209, 127.997 1538, 130.448 1538 C 132.503 1538, 133 1537.514, 133 1535.500 C 133 1533.500, 132.500 1533, 130.500 1533 C 128.310 1533, 128 1532.567, 128 1529.500 C 128 1525.674, 127.791 1525.506, 124.934 1527.035 C 123.825 1527.629, 123 1529.122, 123 1530.535 C 123 1532.685, 122.553 1533, 119.500 1533 C 116.167 1533, 116 1532.833, 116 1529.500 C 116 1525.789, 115.547 1525.451, 112.750 1527.080 M 186.750 1527.080 C 185.787 1527.641, 185 1529.154, 185 1530.443 C 185 1531.732, 184.325 1533.045, 183.500 1533.362 C 182.675 1533.678, 182 1534.640, 182 1535.500 C 182 1536.360, 182.675 1537.322, 183.500 1537.638 C 184.614 1538.066, 185 1539.839, 185 1544.534 C 185 1550.205, 185.277 1551.073, 187.691 1552.972 C 190.786 1555.406, 194.327 1555.301, 194.811 1552.761 C 195.019 1551.671, 194.183 1550.585, 192.571 1549.850 C 190.277 1548.805, 190 1548.104, 190 1543.339 C 190 1538.311, 190.145 1538, 192.500 1538 C 194.500 1538, 195 1537.500, 195 1535.500 C 195 1533.500, 194.500 1533, 192.500 1533 C 190.310 1533, 190 1532.567, 190 1529.500 C 190 1525.789, 189.547 1525.451, 186.750 1527.080 M 235 1540.570 C 235 1555.107, 235.005 1555.138, 237.250 1554.820 C 239.057 1554.563, 239.561 1553.762, 239.810 1550.750 C 239.981 1548.688, 240.431 1547.010, 240.810 1547.021 C 241.190 1547.033, 242.767 1548.833, 244.315 1551.021 C 246.281 1553.800, 247.864 1555, 249.565 1555 C 250.904 1555, 252 1554.631, 252 1554.181 C 252 1553.730, 250.194 1550.941, 247.987 1547.982 L 243.973 1542.603 247.987 1538.514 C 250.194 1536.264, 252 1534.104, 252 1533.712 C 252 1533.320, 250.762 1533, 249.250 1533 C 247.310 1533, 245.554 1534.104, 243.288 1536.750 L 240.075 1540.500 240.038 1533.250 C 240.001 1526.193, 239.933 1526, 237.500 1526 L 235 1526 235 1540.570 M 1265.667 1532.667 C 1264.597 1533.736, 1264.899 1544, 1266 1544 C 1266.556 1544, 1267 1541.333, 1267 1538 C 1267 1531.946, 1266.877 1531.456, 1265.667 1532.667 M 1270 1538 C 1270 1541.333, 1270.444 1544, 1271 1544 C 1271.550 1544, 1272.018 1542.088, 1272.039 1539.750 L 1272.078 1535.500 1273.491 1538.750 C 1274.268 1540.537, 1275.172 1542, 1275.500 1542 C 1275.828 1542, 1276.732 1540.537, 1277.509 1538.750 L 1278.922 1535.500 1278.961 1539.750 C 1278.982 1542.088, 1279.450 1544, 1280 1544 C 1280.556 1544, 1281 1541.333, 1281 1538 C 1281 1530.941, 1279.333 1530.021, 1276.931 1535.755 L 1275.363 1539.500 1273.981 1535.750 C 1271.824 1529.901, 1270 1530.932, 1270 1538 M 1286.321 1533.750 C 1285.982 1534.713, 1285.096 1537.017, 1284.352 1538.872 C 1282.739 1542.895, 1282.663 1544, 1284 1544 C 1284.550 1544, 1285 1543.325, 1285 1542.500 C 1285 1541.500, 1286 1541, 1288 1541 C 1290 1541, 1291 1541.500, 1291 1542.500 C 1291 1543.325, 1291.450 1544, 1292 1544 C 1293.330 1544, 1293.317 1543.923, 1290.928 1537.538 C 1288.797 1531.841, 1287.398 1530.691, 1286.321 1533.750 M 1295.699 1533.780 C 1293.679 1536.012, 1293.495 1539.927, 1295.294 1542.388 C 1296.203 1543.631, 1297.617 1544.060, 1300.044 1543.829 C 1302.973 1543.550, 1303.548 1543.080, 1303.816 1540.750 C 1304.083 1538.433, 1303.768 1538.012, 1301.816 1538.079 C 1300.542 1538.122, 1300.063 1538.385, 1300.750 1538.662 C 1302.769 1539.477, 1302.259 1543, 1300.122 1543 C 1297.466 1543, 1295.801 1540.598, 1296.178 1537.310 C 1296.467 1534.787, 1296.883 1534.500, 1300.251 1534.500 C 1304.636 1534.500, 1304.734 1532.639, 1300.372 1532.201 C 1298.442 1532.008, 1296.801 1532.562, 1295.699 1533.780 M 1307 1538 L 1307 1544 1311.250 1543.840 C 1314.934 1543.701, 1315.067 1543.626, 1312.250 1543.277 C 1309.841 1542.978, 1309 1542.372, 1309 1540.937 C 1309 1539.538, 1309.694 1539, 1311.500 1539 C 1312.875 1539, 1314 1538.550, 1314 1538 C 1314 1537.450, 1312.875 1537, 1311.500 1537 C 1309.944 1537, 1309 1536.433, 1309 1535.500 C 1309 1534.567, 1309.944 1534, 1311.500 1534 C 1312.875 1534, 1314 1533.550, 1314 1533 C 1314 1532.450, 1312.425 1532, 1310.500 1532 L 1307 1532 1307 1538 M 1322 1538 C 1322 1541.333, 1322.444 1544, 1323 1544 C 1323.556 1544, 1324 1541.333, 1324 1538 C 1324 1534.667, 1323.556 1532, 1323 1532 C 1322.444 1532, 1322 1534.667, 1322 1538 M 1327 1538 L 1327 1544 1330.345 1544 C 1336.341 1544, 1339.092 1538.092, 1335 1534 C 1333.889 1532.889, 1331.667 1532, 1330 1532 L 1327 1532 1327 1538 M 1350 1532.979 C 1348.850 1533.738, 1349.258 1533.973, 1351.750 1533.985 C 1354.916 1534, 1356.290 1536.085, 1354.047 1537.471 C 1353.522 1537.795, 1352.142 1539.397, 1350.978 1541.030 L 1348.864 1544 1353.182 1543.850 C 1356.160 1543.747, 1356.647 1543.571, 1354.750 1543.284 C 1351.331 1542.766, 1351.328 1542.310, 1354.722 1538.768 C 1356.892 1536.503, 1357.226 1535.580, 1356.370 1534.214 C 1355.094 1532.179, 1352.093 1531.597, 1350 1532.979 M 1360 1533 C 1360 1533.550, 1361.125 1534, 1362.500 1534 C 1364.056 1534, 1365 1534.567, 1365 1535.500 C 1365 1536.325, 1364.225 1537, 1363.277 1537 C 1361.877 1537, 1361.980 1537.297, 1363.825 1538.590 C 1365.680 1539.889, 1365.871 1540.451, 1364.868 1541.660 C 1364.192 1542.473, 1362.821 1542.925, 1361.820 1542.663 C 1360.819 1542.401, 1360 1542.624, 1360 1543.157 C 1360 1543.690, 1361.463 1543.986, 1363.250 1543.813 C 1366.368 1543.513, 1366.505 1543.317, 1366.620 1539 C 1366.686 1536.525, 1366.293 1533.938, 1365.748 1533.250 C 1364.568 1531.764, 1360 1531.565, 1360 1533 M 1371.352 1532.744 C 1370.705 1533.170, 1370.269 1535.682, 1370.352 1538.500 C 1370.482 1542.907, 1370.773 1543.539, 1372.805 1543.827 C 1375.736 1544.242, 1378.296 1542.176, 1377.435 1540.090 C 1377.075 1539.215, 1376.717 1537.150, 1376.640 1535.500 C 1376.497 1532.425, 1373.896 1531.070, 1371.352 1532.744 M 1380.500 1533 C 1380.139 1533.583, 1381.156 1534, 1382.941 1534 C 1386.510 1534, 1386.994 1535.697, 1383.766 1536.891 L 1381.533 1537.717 1383.823 1538.444 C 1387.074 1539.476, 1386.242 1542.512, 1382.723 1542.461 C 1381.225 1542.439, 1380 1542.776, 1380 1543.211 C 1380 1543.645, 1381.295 1544, 1382.878 1544 C 1386.443 1544, 1388.537 1541.782, 1387.210 1539.410 C 1386.688 1538.478, 1386.492 1536.834, 1386.774 1535.756 C 1387.552 1532.780, 1382.113 1530.391, 1380.500 1533 M 1390 1533 C 1390 1533.550, 1391.125 1534, 1392.500 1534 C 1395.405 1534, 1395.541 1534.769, 1393.500 1539.654 C 1391.762 1543.814, 1391.732 1544, 1392.802 1544 C 1393.244 1544, 1394.481 1541.650, 1395.552 1538.778 C 1396.624 1535.906, 1397.650 1533.206, 1397.833 1532.778 C 1398.017 1532.350, 1396.329 1532, 1394.083 1532 C 1391.838 1532, 1390 1532.450, 1390 1533 M 1401 1533 C 1401 1533.550, 1402.118 1534, 1403.485 1534 L 1405.971 1534 1404 1539 C 1402.916 1541.750, 1402.410 1544, 1402.876 1544 C 1403.557 1544, 1408 1533.951, 1408 1532.411 C 1408 1532.185, 1406.425 1532, 1404.500 1532 C 1402.575 1532, 1401 1532.450, 1401 1533 M 1411 1533 C 1411 1533.550, 1412.125 1534, 1413.500 1534 C 1415.056 1534, 1416 1534.567, 1416 1535.500 C 1416 1536.325, 1415.213 1537.010, 1414.250 1537.022 C 1412.792 1537.041, 1412.889 1537.344, 1414.828 1538.835 C 1416.703 1540.278, 1416.898 1540.836, 1415.828 1541.705 C 1415.098 1542.299, 1413.600 1543.006, 1412.500 1543.276 C 1411.198 1543.596, 1411.646 1543.809, 1413.781 1543.884 C 1417.476 1544.015, 1419.008 1541.843, 1417.229 1538.996 C 1416.448 1537.745, 1416.448 1536.952, 1417.229 1536.171 C 1418.011 1535.389, 1417.956 1534.652, 1417.035 1533.542 C 1415.619 1531.836, 1411 1531.421, 1411 1533 M 1421.500 1533 C 1421.149 1533.567, 1421.990 1534, 1423.441 1534 C 1426.814 1534, 1426.842 1536.860, 1423.500 1540 C 1420.086 1543.207, 1420.352 1544.026, 1424.750 1543.850 C 1427.817 1543.728, 1427.993 1543.624, 1425.719 1543.281 L 1422.939 1542.861 1425.469 1539.854 C 1426.861 1538.200, 1428 1536.296, 1428 1535.623 C 1428 1532.721, 1422.936 1530.677, 1421.500 1533 M 1432.292 1533.202 C 1431.725 1533.916, 1431.314 1536.525, 1431.380 1539 C 1431.484 1542.895, 1431.810 1543.544, 1433.805 1543.827 C 1436.736 1544.242, 1439.296 1542.176, 1438.435 1540.090 C 1438.075 1539.215, 1437.717 1537.150, 1437.640 1535.500 C 1437.536 1533.276, 1436.960 1532.423, 1435.412 1532.202 C 1434.264 1532.038, 1432.860 1532.488, 1432.292 1533.202 M 1441 1533 C 1441 1533.550, 1442.125 1534, 1443.500 1534 C 1446.415 1534, 1446.514 1534.527, 1444.500 1539.346 C 1442.777 1543.468, 1442.698 1544, 1443.802 1544 C 1444.648 1544, 1448.013 1535.390, 1448.005 1533.250 C 1448.002 1532.489, 1446.631 1532, 1444.500 1532 C 1442.575 1532, 1441 1532.450, 1441 1533 M 55 1535 C 51.086 1538.914, 53.906 1546, 59.378 1546 C 62.149 1546, 64.706 1548.445, 63.023 1549.486 C 62.433 1549.851, 60.121 1550.017, 57.887 1549.856 C 54.816 1549.634, 53.579 1550, 52.820 1551.356 C 51.466 1553.776, 52.118 1554.209, 57.962 1554.770 C 63.735 1555.325, 67.602 1553.433, 68.569 1549.580 C 69.522 1545.785, 67.420 1543.134, 62.468 1541.888 C 59.645 1541.177, 58 1540.206, 58 1539.251 C 58 1538.053, 58.926 1537.844, 62.473 1538.244 C 66.310 1538.677, 67.035 1538.464, 67.580 1536.749 C 68.412 1534.128, 66.558 1533.034, 61.250 1533.015 C 58.318 1533.005, 56.380 1533.620, 55 1535 M 90 1542 C 90 1549.667, 90.296 1551.296, 92 1553 C 94.204 1555.204, 100.064 1555.687, 104.435 1554.025 C 106.953 1553.067, 107 1552.866, 107 1543.025 L 107 1533 104.500 1533 C 102.029 1533, 102 1533.098, 102 1541.531 C 102 1548.507, 101.702 1550.177, 100.364 1550.691 C 96.800 1552.058, 95.514 1549.676, 95.210 1541.145 C 94.928 1533.238, 94.847 1533, 92.460 1533 C 90.029 1533, 90 1533.106, 90 1542 M 137 1535 C 135.381 1536.619, 135 1538.333, 135 1544 C 135 1549.667, 135.381 1551.381, 137 1553 C 139.642 1555.642, 145.955 1555.675, 149.139 1553.065 C 151.479 1551.147, 151.482 1551.116, 149.503 1549.648 C 148.144 1548.639, 147.123 1548.483, 146.308 1549.159 C 144.532 1550.634, 140.569 1549.753, 140.197 1547.802 C 139.928 1546.388, 140.846 1546.053, 145.677 1545.802 C 151.936 1545.476, 152.842 1544.490, 151.563 1539.395 C 150.016 1533.232, 141.376 1530.624, 137 1535 M 156.174 1535.314 C 154.284 1537.327, 154 1538.771, 154 1546.384 C 154 1554.891, 154.064 1555.130, 156.250 1554.820 C 158.319 1554.526, 158.540 1553.857, 159 1546.500 C 159.490 1538.658, 159.554 1538.494, 162.250 1538.184 C 164.410 1537.935, 165 1537.345, 165 1535.434 C 165 1533.343, 164.531 1533, 161.674 1533 C 159.491 1533, 157.602 1533.795, 156.174 1535.314 M 168.223 1534.557 C 163.413 1537.925, 166.502 1546, 172.600 1546 C 173.785 1546, 175.311 1546.670, 175.990 1547.488 C 177.668 1549.510, 175.211 1550.426, 169.988 1549.725 C 166.679 1549.281, 165.972 1549.514, 165.429 1551.225 C 165.039 1552.453, 165.320 1553.588, 166.143 1554.110 C 168.051 1555.318, 175.741 1555.209, 178.114 1553.939 C 182.904 1551.376, 182.200 1543.513, 177.079 1542.383 C 171.755 1541.208, 171 1540.826, 171 1539.303 C 171 1538.046, 171.866 1537.838, 175.418 1538.238 C 179.272 1538.672, 179.905 1538.470, 180.380 1536.654 C 180.680 1535.509, 180.379 1534.225, 179.712 1533.801 C 177.615 1532.468, 170.540 1532.933, 168.223 1534.557 M 199.078 1534.736 C 197.482 1536.028, 196.764 1537.747, 196.655 1540.536 C 196.514 1544.139, 196.728 1544.500, 199 1544.500 C 200.889 1544.500, 201.531 1543.950, 201.625 1542.250 C 201.694 1541.013, 201.806 1539.580, 201.875 1539.066 C 201.944 1538.553, 203.238 1537.990, 204.750 1537.816 C 206.728 1537.589, 207.500 1536.938, 207.500 1535.500 C 207.500 1532.729, 202.156 1532.244, 199.078 1534.736 M 218.455 1535.455 C 216.386 1537.523, 216 1538.866, 216 1544 C 216 1549.134, 216.386 1550.477, 218.455 1552.545 C 221.548 1555.639, 226.707 1555.805, 230.365 1552.927 C 231.814 1551.788, 233 1550.468, 233 1549.995 C 233 1548.513, 228.971 1547.779, 227.507 1548.994 C 226.739 1549.632, 225.073 1550.006, 223.805 1549.827 C 221.717 1549.531, 221.500 1548.981, 221.500 1544 C 221.500 1539.019, 221.717 1538.469, 223.805 1538.173 C 225.073 1537.994, 226.739 1538.368, 227.507 1539.006 C 228.971 1540.221, 233 1539.487, 233 1538.005 C 233 1537.532, 231.814 1536.212, 230.365 1535.073 C 226.707 1532.195, 221.548 1532.361, 218.455 1535.455 M 254 1535 C 254 1536.646, 254.518 1537.065, 256.250 1536.820 C 257.488 1536.644, 258.500 1535.825, 258.500 1535 C 258.500 1534.175, 257.488 1533.356, 256.250 1533.180 C 254.518 1532.935, 254 1533.354, 254 1535 M 1372.339 1534.560 C 1371.588 1536.517, 1372.491 1537.409, 1374.457 1536.655 C 1376.435 1535.896, 1376.438 1534.382, 1374.462 1533.624 C 1373.577 1533.284, 1372.676 1533.681, 1372.339 1534.560 M 1433.339 1534.560 C 1432.588 1536.517, 1433.491 1537.409, 1435.457 1536.655 C 1437.435 1535.896, 1437.438 1534.382, 1435.462 1533.624 C 1434.577 1533.284, 1433.676 1533.681, 1433.339 1534.560 M 1329 1538.500 C 1329 1540.975, 1329.196 1543, 1329.435 1543 C 1329.674 1543, 1331.024 1542.561, 1332.435 1542.025 C 1336.502 1540.479, 1335.660 1534, 1331.393 1534 C 1329.224 1534, 1329 1534.420, 1329 1538.500 M 1287 1535.859 C 1287 1536.397, 1286.727 1537.548, 1286.393 1538.418 C 1285.995 1539.456, 1286.338 1540, 1287.393 1540 C 1289.159 1540, 1289.630 1536.507, 1288 1535.500 C 1287.450 1535.160, 1287 1535.322, 1287 1535.859 M 1339.500 1537 C 1339.840 1537.550, 1340.316 1538, 1340.559 1538 C 1340.802 1538, 1341 1537.550, 1341 1537 C 1341 1536.450, 1340.523 1536, 1339.941 1536 C 1339.359 1536, 1339.160 1536.450, 1339.500 1537 M 140.667 1538.667 C 138.862 1540.471, 140.211 1542, 143.607 1542 C 146.485 1542, 147.091 1541.680, 146.607 1540.418 C 146.273 1539.548, 146 1538.648, 146 1538.418 C 146 1537.731, 141.388 1537.946, 140.667 1538.667 M 1371.915 1539.602 C 1371.027 1540.672, 1370.988 1541.388, 1371.775 1542.175 C 1373.156 1543.556, 1376 1542.522, 1376 1540.638 C 1376 1538.555, 1373.344 1537.881, 1371.915 1539.602 M 1432.446 1540.087 C 1431.501 1541.616, 1433.552 1543.386, 1435.433 1542.664 C 1436.295 1542.333, 1437 1541.374, 1437 1540.531 C 1437 1538.784, 1433.465 1538.439, 1432.446 1540.087 M 1339 1543 C 1339 1543.550, 1339.450 1544, 1340 1544 C 1340.550 1544, 1341 1543.550, 1341 1543 C 1341 1542.450, 1340.550 1542, 1340 1542 C 1339.450 1542, 1339 1542.450, 1339 1543 M 209.527 1544.250 C 209.302 1544.938, 208.974 1546.400, 208.800 1547.500 C 208.586 1548.848, 207.569 1549.605, 205.681 1549.822 C 203.449 1550.079, 202.943 1550.587, 203.190 1552.322 C 203.587 1555.113, 208.157 1555.783, 211.565 1553.550 C 213.545 1552.252, 214 1551.117, 214 1547.477 C 214 1543.644, 213.708 1543, 211.969 1543 C 210.851 1543, 209.753 1543.563, 209.527 1544.250 M 1337.231 1566.500 C 1337.256 1571.203, 1337.397 1571.743, 1337.882 1569 C 1338.265 1566.830, 1339.070 1565.500, 1340 1565.500 C 1340.923 1565.500, 1341.752 1566.847, 1342.156 1569 L 1342.812 1572.500 1342.656 1568.500 C 1342.528 1565.219, 1342.141 1564.500, 1340.500 1564.500 C 1339.383 1564.500, 1338.213 1563.617, 1337.850 1562.500 C 1337.492 1561.400, 1337.214 1563.200, 1337.231 1566.500 M 1409.230 1566.500 C 1409.179 1569.933, 1409.452 1571.710, 1409.867 1570.653 C 1410.527 1568.976, 1410.716 1568.953, 1411.920 1570.403 C 1412.648 1571.281, 1413.710 1572, 1414.277 1572 C 1414.845 1572, 1414.495 1571.100, 1413.500 1570 C 1411.752 1568.068, 1411.755 1567.926, 1413.595 1565.845 L 1415.500 1563.690 1412.819 1565.415 L 1410.137 1567.140 1409.729 1563.820 C 1409.499 1561.952, 1409.281 1563.124, 1409.230 1566.500 M 1354.607 1562.727 C 1353.823 1563.510, 1353.823 1568.376, 1354.607 1570.418 C 1354.941 1571.288, 1355.953 1571.964, 1356.857 1571.921 C 1357.895 1571.871, 1358.039 1571.656, 1357.250 1571.338 C 1355.824 1570.762, 1355.533 1565.339, 1356.901 1564.833 C 1357.397 1564.650, 1357.220 1563.965, 1356.508 1563.310 C 1355.796 1562.656, 1354.940 1562.393, 1354.607 1562.727 M 1359.840 1563.166 C 1358.907 1566.004, 1360.476 1571.475, 1362.270 1571.637 C 1363.509 1571.749, 1363.584 1571.655, 1362.520 1571.325 C 1360.285 1570.631, 1360.486 1565.023, 1362.750 1564.921 C 1364.144 1564.858, 1364.195 1564.726, 1363 1564.271 C 1362.175 1563.957, 1361.225 1563.280, 1360.889 1562.766 C 1360.553 1562.253, 1360.081 1562.433, 1359.840 1563.166 M 1386.884 1563.051 C 1386.619 1563.848, 1386.648 1566.070, 1386.951 1567.989 C 1387.343 1570.477, 1388.073 1571.563, 1389.500 1571.775 C 1391.328 1572.048, 1391.350 1571.980, 1389.750 1570.987 C 1388.787 1570.390, 1388 1569.045, 1388 1568 C 1388 1566.955, 1388.787 1565.641, 1389.750 1565.080 C 1391.329 1564.161, 1391.337 1564.058, 1389.833 1564.030 C 1388.917 1564.014, 1387.987 1563.460, 1387.767 1562.801 C 1387.494 1561.983, 1387.213 1562.063, 1386.884 1563.051 M 1295.453 1565.750 C 1294.681 1568.283, 1293 1568.797, 1293 1566.500 C 1293 1565.675, 1292.592 1565, 1292.094 1565 C 1291.584 1565, 1291.657 1566.531, 1292.261 1568.500 C 1293.554 1572.713, 1294.533 1572.939, 1295.515 1569.250 L 1296.247 1566.500 1297.207 1569.250 C 1298.515 1572.999, 1299.646 1572.702, 1300.453 1568.398 C 1301.264 1564.075, 1300.537 1562.739, 1299.531 1566.703 L 1298.821 1569.500 1297.480 1566.500 C 1296.181 1563.594, 1296.117 1563.571, 1295.453 1565.750 M 1303.588 1567.500 C 1303.913 1569.700, 1304.333 1571.658, 1304.523 1571.850 C 1305.360 1572.702, 1307.010 1570.685, 1307.106 1568.691 C 1307.202 1566.727, 1307.325 1566.785, 1308.299 1569.250 C 1308.897 1570.763, 1309.728 1572, 1310.146 1572 C 1311.023 1572, 1313.171 1564.838, 1312.496 1564.163 C 1312.075 1563.742, 1311.869 1564.182, 1310.698 1568 C 1310.388 1569.013, 1309.835 1568.525, 1308.997 1566.500 L 1307.755 1563.500 1306.513 1566.407 L 1305.271 1569.314 1304.134 1566.407 C 1303.057 1563.653, 1303.028 1563.711, 1303.588 1567.500 M 1314.308 1565.500 C 1316.334 1573.101, 1316.966 1573.640, 1318.701 1569.250 C 1319.675 1566.785, 1319.798 1566.727, 1319.894 1568.691 C 1319.952 1569.896, 1320.451 1571.161, 1321.002 1571.501 C 1322.086 1572.171, 1324.049 1567.923, 1323.921 1565.185 C 1323.878 1564.256, 1323.368 1564.804, 1322.785 1566.407 L 1321.729 1569.314 1320.487 1566.407 L 1319.245 1563.500 1317.965 1566.500 C 1316.857 1569.098, 1316.626 1569.232, 1316.246 1567.500 C 1316.004 1566.400, 1315.349 1565.050, 1314.791 1564.500 C 1314.107 1563.827, 1313.949 1564.153, 1314.308 1565.500 M 1329.667 1564.667 C 1328.365 1565.968, 1329.028 1567.874, 1331 1568.500 C 1333.661 1569.345, 1333.538 1570.747, 1330.750 1571.339 C 1329.180 1571.673, 1329.384 1571.769, 1331.423 1571.659 C 1335.338 1571.446, 1335.774 1569.473, 1332.312 1567.639 L 1329.500 1566.150 1332 1565.138 C 1334.236 1564.234, 1334.280 1564.120, 1332.417 1564.063 C 1331.271 1564.029, 1330.033 1564.300, 1329.667 1564.667 M 1351 1565.918 C 1351 1568.899, 1349.922 1571, 1348.393 1571 C 1347.512 1571, 1347 1569.898, 1347 1568 C 1347 1566.350, 1346.550 1565, 1346 1565 C 1344.867 1565, 1344.752 1566.473, 1345.630 1569.750 C 1346.079 1571.424, 1346.972 1572, 1349.117 1572 C 1351.814 1572, 1352 1571.742, 1352 1568 C 1352 1565.800, 1351.775 1564, 1351.500 1564 C 1351.225 1564, 1351 1564.863, 1351 1565.918 M 1366.046 1565.445 C 1365.386 1566.240, 1364.994 1567.927, 1365.173 1569.195 C 1365.437 1571.059, 1366.170 1571.533, 1369 1571.673 C 1372.331 1571.837, 1372.358 1571.813, 1369.557 1571.173 C 1365.826 1570.320, 1365.649 1568.598, 1369.250 1568.184 C 1372.246 1567.839, 1372.654 1567.054, 1370.800 1565.200 C 1369.199 1563.599, 1367.506 1563.686, 1366.046 1565.445 M 1374.136 1568.463 C 1374.229 1571.215, 1374.417 1571.704, 1374.727 1570 C 1374.978 1568.625, 1375.864 1566.737, 1376.697 1565.804 C 1378.072 1564.265, 1378.017 1564.123, 1376.106 1564.267 C 1374.314 1564.402, 1374.020 1565.027, 1374.136 1568.463 M 1380.224 1565.176 C 1378.844 1566.556, 1380.377 1569, 1382.622 1569 C 1385.020 1569, 1384.110 1570.848, 1381.488 1571.305 C 1379.175 1571.709, 1379.194 1571.734, 1381.729 1571.622 C 1385.071 1571.474, 1386.073 1568.514, 1383.048 1567.723 C 1380.541 1567.067, 1380.368 1565.312, 1382.750 1564.689 C 1384.094 1564.338, 1384.140 1564.205, 1382.950 1564.116 C 1382.098 1564.052, 1380.871 1564.529, 1380.224 1565.176 M 1393.011 1565.487 C 1392.289 1566.356, 1392.045 1568.044, 1392.423 1569.550 C 1392.948 1571.643, 1393.579 1572.067, 1395.785 1571.813 C 1397.741 1571.588, 1398.591 1570.856, 1398.827 1569.195 C 1399.431 1564.933, 1395.533 1562.448, 1393.011 1565.487 M 1402.170 1564.874 C 1401.414 1565.353, 1400.982 1566.966, 1401.170 1568.609 C 1401.446 1571.027, 1401.991 1571.532, 1404.500 1571.696 C 1407.290 1571.879, 1407.325 1571.841, 1405 1571.155 C 1401.576 1570.145, 1401.059 1566.308, 1404.180 1565.057 C 1405.456 1564.545, 1405.825 1564.105, 1405 1564.079 C 1404.175 1564.052, 1402.901 1564.410, 1402.170 1564.874 M 1422.046 1565.445 C 1421.386 1566.240, 1420.994 1567.927, 1421.173 1569.195 C 1421.425 1570.972, 1422.187 1571.536, 1424.500 1571.659 C 1426.638 1571.772, 1426.836 1571.678, 1425.189 1571.331 C 1423.918 1571.064, 1422.630 1570.199, 1422.327 1569.410 C 1421.600 1567.514, 1423.945 1564.765, 1425.712 1565.443 C 1426.478 1565.737, 1426.829 1565.532, 1426.493 1564.989 C 1425.606 1563.554, 1423.430 1563.777, 1422.046 1565.445 M 1430.170 1564.874 C 1427.985 1566.259, 1429.116 1571.445, 1431.682 1571.811 C 1434.570 1572.222, 1436.511 1568.823, 1435 1566 C 1433.858 1563.867, 1432.323 1563.509, 1430.170 1564.874 M 1438.132 1568.406 L 1438.263 1572.500 1438.882 1569.079 C 1439.664 1564.752, 1441.728 1563.964, 1442.551 1567.679 C 1443.584 1572.349, 1443.838 1572.651, 1443.921 1569.309 C 1443.996 1566.288, 1445.485 1564.152, 1446.682 1565.349 C 1446.985 1565.651, 1447.584 1567.384, 1448.014 1569.199 L 1448.795 1572.500 1448.898 1569.309 C 1449.022 1565.447, 1447.800 1564.548, 1442.250 1564.414 L 1438 1564.311 1438.132 1568.406 M 1367.500 1566 C 1367.160 1566.550, 1367.835 1567, 1369 1567 C 1370.165 1567, 1370.840 1566.550, 1370.500 1566 C 1370.160 1565.450, 1369.485 1565, 1369 1565 C 1368.515 1565, 1367.840 1565.450, 1367.500 1566 M 1394.147 1566.323 C 1392.719 1568.044, 1393.662 1571, 1395.638 1571 C 1397.752 1571, 1398.490 1568.062, 1396.801 1566.372 C 1395.529 1565.101, 1395.167 1565.094, 1394.147 1566.323 M 1430.394 1566.417 C 1429.566 1568.574, 1430.717 1571.261, 1432.251 1570.750 C 1432.938 1570.521, 1433.500 1569.283, 1433.500 1568 C 1433.500 1565.259, 1431.273 1564.124, 1430.394 1566.417 M 1325 1571 C 1325 1571.550, 1325.477 1572, 1326.059 1572 C 1326.641 1572, 1326.840 1571.550, 1326.500 1571 C 1326.160 1570.450, 1325.684 1570, 1325.441 1570 C 1325.198 1570, 1325 1570.450, 1325 1571 M 1417 1571 C 1417 1571.550, 1417.477 1572, 1418.059 1572 C 1418.641 1572, 1418.840 1571.550, 1418.500 1571 C 1418.160 1570.450, 1417.684 1570, 1417.441 1570 C 1417.198 1570, 1417 1570.450, 1417 1571" stroke="none" fill="#000000" fill-rule="evenodd"/>
</svg>