<svg xmlns="http://www.w3.org/2000/svg" width="568" height="568" viewBox="0 0 568 568" version="1.1">
	<path d="M 272.500 101.569 C 270.850 101.797, 265.572 102.476, 260.771 103.077 C 255.969 103.678, 249.669 104.840, 246.771 105.659 C 243.872 106.478, 240.957 107.190, 240.293 107.241 C 239.629 107.292, 238.838 107.981, 238.534 108.773 C 238.153 109.765, 237.183 110.012, 235.411 109.567 C 233.105 108.988, 232.905 109.157, 233.472 111.211 C 234.053 113.316, 233.990 113.360, 232.692 111.750 C 230.864 109.485, 229.612 109.485, 230.880 111.749 C 231.590 113.018, 231.415 113.989, 230.244 115.283 C 228.704 116.984, 228.533 116.947, 226.564 114.495 L 224.500 111.922 218.051 114.550 C 200.478 121.711, 181.606 133.435, 166.755 146.419 C 136.589 172.792, 115.193 210.746, 107.800 251 C 104.901 266.786, 104.703 296.740, 107.397 312 C 112.664 341.833, 123.657 367.475, 141.500 391.549 C 147.738 399.965, 148.840 400.993, 151.628 400.996 C 154.817 401, 157.903 403.324, 156.153 404.405 C 155.634 404.726, 154.952 404.316, 154.636 403.494 C 154.096 402.087, 151 401.317, 151 402.590 C 151 402.914, 152.221 404.473, 153.713 406.054 C 155.700 408.159, 156.662 408.603, 157.307 407.714 C 157.908 406.887, 158.017 407.036, 157.652 408.183 C 156.604 411.465, 177.196 428.866, 193.814 438.740 C 218.681 453.516, 249.588 462.934, 274.500 463.327 L 285.500 463.500 285.798 457.237 C 286.010 452.780, 285.722 450.847, 284.798 450.533 C 284.084 450.291, 278.325 449.599, 272 448.995 C 236.220 445.579, 205.414 432.554, 177.712 409.128 C 172.425 404.658, 167.601 401, 166.991 401 C 166.381 401, 166.148 400.570, 166.473 400.044 C 166.798 399.518, 165.924 398.341, 164.532 397.429 C 163.139 396.517, 162 395.331, 162 394.794 C 162 394.258, 160.024 391.497, 157.610 388.659 C 141.531 369.764, 128.775 343.033, 122.775 315.664 C 119.741 301.827, 119.488 265.543, 122.328 251.536 C 127.352 226.749, 138.067 202.642, 152.790 183 C 164.993 166.720, 185.548 148.127, 201.317 139.105 L 207.087 135.803 204.570 132.502 C 202.325 129.559, 202.221 129.062, 203.607 127.911 C 204.829 126.897, 205.574 126.877, 207.081 127.819 C 208.642 128.793, 209 128.746, 209 127.567 C 209 125.623, 210.932 124.532, 212.174 125.774 C 212.841 126.441, 212.760 127.030, 211.933 127.542 C 211.132 128.036, 210.945 127.899, 211.405 127.155 C 211.797 126.520, 211.604 126, 210.976 126 C 210.347 126, 210.032 126.563, 210.274 127.250 C 210.517 127.938, 211.454 128.438, 212.358 128.361 C 213.261 128.285, 214 128.675, 214 129.228 C 214 129.781, 212.849 130.013, 211.442 129.744 C 209.468 129.367, 209.015 129.597, 209.459 130.754 C 209.776 131.579, 209.464 132.945, 208.767 133.789 C 207.332 135.529, 207.080 135.615, 216.500 131.140 C 220.350 129.310, 228.675 126.099, 235 124.004 C 286.093 107.077, 344.553 116.930, 387.122 149.643 C 395.695 156.231, 415 174.431, 415 175.926 C 415 176.462, 415.563 177.260, 416.250 177.700 C 416.938 178.140, 417.950 179.232, 418.500 180.127 C 419.050 181.022, 422.307 185.931, 425.739 191.036 C 437.074 207.900, 445.942 229.089, 450.002 249.009 C 453.434 265.853, 453.537 265.831, 440.412 251.029 L 428.825 237.960 423.912 242.073 C 421.211 244.335, 419 246.730, 419 247.394 C 419 248.356, 450.621 284.859, 457.924 292.328 C 459.648 294.091, 460.424 293.348, 479.852 271.328 C 490.929 258.773, 499.994 247.979, 499.996 247.343 C 499.998 246.707, 497.785 244.331, 495.077 242.064 L 490.154 237.943 478.930 250.491 C 472.756 257.392, 467.553 262.886, 467.366 262.700 C 467.180 262.513, 466.141 257.217, 465.058 250.931 C 460.984 227.294, 451.182 202.949, 437.418 182.281 C 430.105 171.299, 428.781 169.927, 427.500 172 C 427.160 172.550, 426.133 173, 425.218 173 C 423.922 173, 424.055 172.650, 425.825 171.410 C 427.588 170.175, 427.842 169.515, 426.962 168.455 C 426.085 167.398, 425.416 167.348, 423.996 168.235 C 422.590 169.113, 421.794 169.074, 420.581 168.067 C 418.583 166.409, 418.593 165.550, 420.638 163.505 C 422.155 161.988, 421.989 161.568, 418.388 157.813 C 391.083 129.346, 354.259 109.953, 315 103.365 C 306.615 101.958, 278.334 100.763, 272.500 101.569 M 226 111.878 C 226 113.138, 228.935 115.398, 229.648 114.686 C 230.672 113.662, 229.143 111, 227.531 111 C 226.689 111, 226 111.395, 226 111.878 M 221 116.500 C 221 117.384, 221.923 118.006, 223.250 118.015 C 225.113 118.028, 225.242 118.213, 224 119.091 C 222.780 119.954, 222.768 120.080, 223.938 119.764 C 226.291 119.127, 226.358 117, 224.024 117 C 222.846 117, 222.160 116.550, 222.500 116 C 222.840 115.450, 222.641 115, 222.059 115 C 221.477 115, 221 115.675, 221 116.500 M 219.529 118.744 C 220.026 120.595, 219.813 120.874, 218.315 120.337 C 216.972 119.855, 217.150 120.312, 219 122.093 C 221.988 124.969, 222.851 123.392, 220.526 119.308 C 219.271 117.104, 219.056 116.983, 219.529 118.744 M 213.307 122.435 C 212.366 123.507, 212.524 124.164, 214.057 125.552 C 215.126 126.519, 216 126.817, 216 126.214 C 216 125.611, 215.543 124.835, 214.984 124.490 C 214.425 124.144, 214.244 123.414, 214.583 122.866 C 214.952 122.268, 216.059 122.596, 217.349 123.685 L 219.500 125.500 217.595 123.250 C 215.403 120.661, 214.942 120.573, 213.307 122.435 M 204.513 128.979 C 203.674 130.336, 205.734 133, 207.622 133 C 209.550 133, 209.338 131.616, 207.099 129.590 C 205.798 128.412, 204.983 128.219, 204.513 128.979 M 420.480 165.032 C 420.092 165.660, 420.200 166.600, 420.720 167.120 C 421.934 168.334, 425.204 167.111, 424.709 165.627 C 424.186 164.054, 421.333 163.653, 420.480 165.032 M 415 168.984 C 415 170.076, 416.388 172.438, 418.085 174.234 C 421.374 177.716, 421.055 176.004, 417.725 172.301 C 416.634 171.088, 416.014 169.406, 416.342 168.551 C 416.669 167.698, 416.501 167, 415.969 167 C 415.436 167, 415 167.893, 415 168.984 M 156.965 170.542 C 155.995 171.711, 155.966 172.366, 156.842 173.242 C 157.719 174.119, 158 173.988, 158 172.700 C 158 171.765, 158.450 171, 159 171 C 159.550 171, 160 170.550, 160 170 C 160 168.509, 158.418 168.792, 156.965 170.542 M 241 204.599 C 217.625 210.914, 197.988 216.625, 197.363 217.290 C 195.093 219.705, 175 258.664, 175 260.650 C 175 263.525, 177.258 265.259, 187.250 270.052 L 196 274.249 196 301.502 C 196 322.228, 196.302 329.006, 197.262 329.803 C 198.564 330.883, 273.793 367.514, 282.229 371.176 L 286.958 373.228 303.729 365.210 C 326.512 354.317, 356.407 339.783, 356.917 339.352 C 357.146 339.159, 357.044 338.711, 356.691 338.357 C 356.337 338.004, 355.289 338.342, 354.362 339.107 C 352.906 340.309, 352.746 340.294, 353.194 339 C 353.524 338.047, 354.859 337.554, 356.857 337.647 C 358.585 337.729, 360 337.343, 360 336.790 C 360 336.238, 360.675 336.045, 361.500 336.362 C 362.414 336.712, 363 336.363, 363 335.469 C 363 333.989, 364.031 333.620, 367.250 333.948 C 368.212 334.046, 369 333.647, 369 333.063 C 369 332.478, 368.438 331.993, 367.750 331.985 C 366.886 331.974, 366.946 331.687, 367.942 331.057 C 368.928 330.433, 369.820 330.675, 370.761 331.822 C 371.985 333.315, 372.072 333.198, 371.549 330.750 C 371.182 329.030, 371.384 328, 372.088 328 C 372.707 328, 372.955 327.325, 372.638 326.500 C 371.773 324.244, 373.330 324.698, 374.860 327.147 C 375.942 328.880, 376.371 329.025, 377.085 327.897 C 377.571 327.129, 377.992 314.575, 378.019 300 L 378.069 273.500 385.688 270.023 C 394.992 265.777, 398 263.507, 398 260.732 C 398 258.692, 377.968 219.774, 375.637 217.286 C 374.247 215.802, 289.985 192.976, 286.202 193.059 C 284.716 193.091, 264.375 198.284, 241 204.599 M 254.750 214.275 C 238.387 218.714, 225 222.644, 225 223.007 C 225 223.697, 284.721 246.012, 286.549 246.004 C 287.661 246, 346.748 224.274, 348.363 223.276 C 349.350 222.666, 288.634 205.957, 286 206.114 C 285.175 206.163, 271.113 209.835, 254.750 214.275 M 203.196 233.295 C 199.066 240.218, 190.620 256.952, 191.047 257.362 C 191.900 258.180, 262.232 291.101, 262.484 290.800 C 262.623 290.635, 266.017 283.169, 270.028 274.210 C 274.380 264.486, 276.953 257.559, 276.410 257.026 C 275.909 256.535, 263.125 251.560, 248 245.970 C 232.875 240.380, 217.037 234.520, 212.804 232.948 L 205.108 230.090 203.196 233.295 M 361.500 232.390 C 332.943 242.659, 296.681 256.667, 296.337 257.563 C 296.021 258.387, 309.107 289.043, 310.525 290.800 C 310.764 291.097, 381.097 258.182, 381.932 257.383 C 382.440 256.897, 371.189 234.940, 369 232.147 C 367.526 230.266, 367.396 230.270, 361.500 232.390 M 337.010 293.104 C 317.123 302.499, 308.687 306.009, 306.510 305.795 C 303.764 305.526, 303.045 304.579, 298.313 295 C 295.460 289.225, 293.098 284.978, 293.063 285.561 C 293.028 286.145, 292.012 287.683, 290.805 288.979 L 288.610 291.335 290.791 290.765 L 292.973 290.194 293.237 322.994 L 293.500 355.794 328.479 338.868 C 347.718 329.558, 363.815 321.585, 364.251 321.149 C 364.686 320.714, 364.920 311.303, 364.771 300.237 L 364.500 280.116 337.010 293.104 M 209 301.282 L 209 321.698 218.750 326.286 C 224.113 328.810, 240.088 336.505, 254.250 343.386 L 280 355.898 279.937 320.199 L 279.874 284.500 274.687 295 C 269.937 304.615, 269.244 305.525, 266.461 305.798 C 264.253 306.014, 256.489 302.807, 238.056 294.066 C 224.104 287.450, 211.859 281.773, 210.845 281.451 C 209.093 280.895, 209 281.893, 209 301.282 M 286.374 283.467 C 286.065 284.274, 286.043 285.511, 286.327 286.217 C 286.650 287.023, 286.871 286.849, 286.921 285.750 C 286.964 284.788, 287.675 284, 288.500 284 C 289.325 284, 290 283.550, 290 283 C 290 281.440, 287.004 281.826, 286.374 283.467 M 452.465 320.961 C 444.747 324.054, 446.809 335, 455.111 335 C 459.013 335, 462 331.815, 462 327.655 C 462 322.646, 457.007 319.141, 452.465 320.961 M 372.694 328.639 C 371.895 329.438, 372.798 331, 374.059 331 C 374.577 331, 375 330.325, 375 329.500 C 375 327.954, 373.820 327.513, 372.694 328.639 M 432.039 365.189 C 429.426 367.993, 429.451 371.033, 432.115 374.419 C 433.818 376.584, 434.917 377.048, 437.765 376.804 C 444.279 376.244, 446.989 369.132, 442.427 364.570 C 440.097 362.240, 434.474 362.575, 432.039 365.189 M 157.512 396.962 C 156.831 399.109, 158.019 401.941, 160.445 403.955 C 162.649 405.784, 162.371 404.421, 159.843 401.001 C 158.054 398.582, 157.904 397.820, 158.965 396.542 C 159.745 395.602, 159.833 395, 159.190 395 C 158.610 395, 157.855 395.883, 157.512 396.962 M 404.783 400.750 C 402.659 403.185, 402.748 408.462, 404.947 410.452 C 408.947 414.072, 416.754 412.951, 415.481 408.939 C 415.134 407.847, 415.331 407, 415.933 407 C 417.725 407, 417.122 403.122, 415 401 C 412.486 398.486, 406.878 398.349, 404.783 400.750 M 408.200 401.200 C 406.350 403.050, 406.762 405.264, 409.508 408.226 C 411.166 410.014, 412.590 410.711, 413.708 410.282 C 415.062 409.762, 415.110 409.554, 413.949 409.237 C 409.521 408.028, 409.456 407.881, 412.328 405.573 C 414.957 403.461, 415.040 403.183, 413.507 401.650 C 411.554 399.696, 409.848 399.552, 408.200 401.200 M 408.965 402.542 C 407.991 403.716, 407.963 404.363, 408.850 405.250 C 410.280 406.680, 413.632 403.831, 412.559 402.096 C 411.624 400.582, 410.473 400.725, 408.965 402.542 M 370.364 427.148 C 368.170 428.232, 366 431.935, 366 434.593 C 366 435.417, 367.105 437.195, 368.455 438.545 C 371.604 441.695, 375.943 441.754, 378.826 438.686 C 381.919 435.393, 381.624 433.925, 378.015 434.647 C 373.933 435.463, 372.676 432.490, 375.975 429.819 C 377.245 428.791, 378.106 427.773, 377.890 427.556 C 376.798 426.464, 372.246 426.217, 370.364 427.148 M 376.655 430.829 C 374.527 433.181, 374.564 434, 376.800 434 C 379.155 434, 380.982 432.117, 380.315 430.378 C 379.603 428.524, 378.633 428.643, 376.655 430.829 M 326.073 446.635 C 323.702 449.649, 323.548 450.914, 325.130 454.385 C 327.441 459.459, 335.372 459.910, 337.939 455.114 C 342.137 447.269, 331.533 439.693, 326.073 446.635" stroke="none" fill="#000000" fill-rule="evenodd"/>
</svg>