<svg width="80" height="80" viewBox="0 0 80 80" fill="none" xmlns="http://www.w3.org/2000/svg">
<rect width="80" height="80" fill="#F2F4F7"/>
<path d="M40 20.292C50.8846 20.292 59.708 29.1154 59.708 40C59.708 50.8846 50.8846 59.708 40 59.708C29.1154 59.708 20.292 50.8846 20.292 40C20.292 29.1154 29.1154 20.292 40 20.292ZM37.0693 47.792C34.2733 47.792 31.6919 49.2901 30.3047 51.7178L29.4248 53.2559C32.3246 55.5722 36.0001 56.958 40 56.958C43.9995 56.958 47.6746 55.5727 50.5742 53.2568L49.6953 51.7178C48.3081 49.2901 45.7258 47.792 42.9297 47.792H37.0693ZM40 23.042C30.6342 23.042 23.042 30.6342 23.042 40C23.042 44.3472 24.6786 48.3113 27.3682 51.3125L27.917 50.3535C29.7939 47.069 33.2864 45.042 37.0693 45.042H42.9297C46.7126 45.042 50.2061 47.069 52.083 50.3535L52.6309 51.3135C55.321 48.3121 56.958 44.3477 56.958 40C56.958 30.6342 49.3658 23.042 40 23.042ZM40 29.458C43.7968 29.458 46.8748 32.5362 46.875 36.333C46.875 40.13 43.797 43.208 40 43.208C36.203 43.208 33.125 40.13 33.125 36.333C33.1252 32.5362 36.2032 29.458 40 29.458ZM40 32.208C37.7219 32.208 35.8752 34.055 35.875 36.333C35.875 38.6112 37.7218 40.458 40 40.458C42.2782 40.458 44.125 38.6112 44.125 36.333C44.1248 34.055 42.2781 32.208 40 32.208Z" fill="#465FFF"/>
</svg>
