<svg width="80" height="80" viewBox="0 0 80 80" fill="none" xmlns="http://www.w3.org/2000/svg">
<rect width="80" height="80" fill="#F2F4F7"/>
<path d="M40 59.708C40.3647 59.708 40.7148 59.5635 40.9727 59.3057C41.2304 59.0478 41.375 58.6976 41.375 58.333L41.375 39.4082C42.9977 39.1033 44.6841 38.2885 47.0303 37.1523C47.1305 37.1038 47.2323 37.0546 47.335 37.0049L52.79 34.3652C53.6642 33.9423 54.4551 33.5599 55.125 33.1963L55.125 40C55.125 40.7594 55.7406 41.375 56.5 41.375C57.2594 41.375 57.875 40.7594 57.875 40L57.875 30.833C57.875 30.6993 57.8549 30.5704 57.8193 30.4482C57.8539 30.2805 57.875 30.1039 57.875 29.917C57.875 28.6299 56.9855 27.8117 56.167 27.2588C55.3496 26.7067 54.1745 26.1376 52.79 25.4678L47.335 22.8281C47.2323 22.7784 47.1305 22.7292 47.0303 22.6807C44.0205 21.2231 42.0968 20.292 40 20.292C37.9032 20.292 35.9795 21.2231 32.9697 22.6807C32.8695 22.7292 32.7677 22.7784 32.665 22.8281L27.3096 25.4199C27.2766 25.4359 27.2437 25.4519 27.2109 25.4678C25.8263 26.1377 24.6505 26.7067 23.833 27.2588C23.0145 27.8117 22.125 28.6299 22.125 29.917C22.125 30.1038 22.1451 30.2805 22.1797 30.4482C22.1441 30.5703 22.125 30.6994 22.125 30.833L22.125 49.4619C22.125 51.516 23.6235 52.8826 25.4678 53.9893C27.3348 55.1096 30.0811 56.2703 33.5518 57.7363L33.666 57.7842C33.7582 57.8231 33.8495 57.8614 33.9395 57.8994C36.5409 58.9992 38.218 59.708 40 59.708ZM28.5078 31.9385C26.9967 31.2073 26.0047 30.7232 25.3721 30.2959C25.1001 30.1122 24.9681 29.988 24.9072 29.917C24.9681 29.846 25.1 29.7209 25.3721 29.5371C26.0047 29.1099 26.9969 28.6257 28.5078 27.8945L33.8633 25.3037C37.2876 23.6467 38.6111 23.042 40 23.042C41.3889 23.042 42.7124 23.6467 46.1367 25.3037L46.1436 25.3076L30.7305 33.0146L28.5078 31.9385ZM40 36.792C38.6111 36.792 37.2874 36.1872 33.8633 34.5303L33.8555 34.5273L49.2695 26.8203L51.4922 27.8945C53.0031 28.6257 53.9953 29.1099 54.6279 29.5371C54.9 29.7209 55.0319 29.846 55.0928 29.917C55.0319 29.988 54.8999 30.1122 54.6279 30.2959C53.9953 30.7232 53.0033 31.2073 51.4922 31.9385L46.1367 34.5303C42.7126 36.1872 41.3889 36.792 40 36.792ZM38.625 56.7529C37.7471 56.5114 36.6047 56.0402 34.7363 55.251C31.1268 53.7262 28.5624 52.6387 26.8828 51.6309C25.1602 50.5972 24.875 49.9424 24.875 49.4619L24.875 33.1963C25.5451 33.5599 26.3366 33.9432 27.2109 34.3662L32.665 37.0049C32.7677 37.0546 32.8695 37.1038 32.9697 37.1523C35.3159 38.2885 37.0023 39.1033 38.625 39.4082L38.625 56.7529ZM32.0518 43.0635C32.731 43.4031 33.5569 43.1275 33.8965 42.4482C34.236 41.7691 33.9613 40.9432 33.2822 40.6035L29.6152 38.7705C28.936 38.4309 28.1101 38.7065 27.7705 39.3857C27.4311 40.0649 27.7066 40.8909 28.3857 41.2305L32.0518 43.0635ZM48.6436 57.874C49.1654 57.8986 49.6562 57.6245 49.9102 57.168L49.9121 57.165L49.9219 57.1475L49.9619 57.0762C49.998 57.0126 50.0527 56.9174 50.124 56.7949C50.267 56.5496 50.4778 56.1944 50.7451 55.7617C51.2807 54.8946 52.0393 53.7229 52.9326 52.499C53.8288 51.2712 54.8444 50.0135 55.8916 48.9639C56.9565 47.8965 57.9698 47.1315 58.8496 46.7754C59.5534 46.4904 59.8923 45.6882 59.6074 44.9844C59.3224 44.2806 58.5212 43.9407 57.8174 44.2256C56.4325 44.7861 55.1097 45.8544 53.9453 47.0215C52.7634 48.2061 51.6556 49.5841 50.7119 50.877C49.9521 51.9179 49.2876 52.9188 48.7646 53.7432C48.2782 53.0425 47.7935 52.5469 47.3359 52.1982C46.9156 51.878 46.5277 51.6903 46.2021 51.584C46.0408 51.5313 45.8985 51.4996 45.7793 51.4814C45.7198 51.4724 45.6659 51.4663 45.6191 51.4629C45.596 51.4612 45.5745 51.4607 45.5547 51.46L45.5264 51.459H45.5C44.7406 51.459 44.125 52.0746 44.125 52.834C44.1251 53.5456 44.6663 54.1306 45.3594 54.2012C45.398 54.2152 45.506 54.2617 45.6689 54.3857C46.0341 54.6639 46.7106 55.3657 47.4482 57.0518C47.6578 57.5306 48.1215 57.8492 48.6436 57.874Z" fill="#465FFF"/>
</svg>
