<svg width="80" height="80" viewBox="0 0 80 80" fill="none" xmlns="http://www.w3.org/2000/svg">
<rect width="80" height="80" fill="#F2F4F7"/>
<path d="M41.7063 18.4575L57.7938 27.7497C58.8487 28.3604 59.5 29.4863 59.5 30.7059V49.2922C59.5002 49.8917 59.3426 50.4808 59.043 51.0001C58.7435 51.5193 58.3126 51.9506 57.7938 52.2503L41.7063 61.5425C41.1875 61.8422 40.599 62 40 62C39.401 62 38.8125 61.8422 38.2938 61.5425L22.2063 52.2484C21.6876 51.9488 21.257 51.5179 20.9575 50.9989C20.658 50.48 20.5002 49.8914 20.5 49.2922V30.7059C20.5 29.4863 21.1513 28.3604 22.2063 27.7497L38.2938 18.4575C38.8125 18.1578 39.401 18 40 18C40.599 18 41.1875 18.1578 41.7063 18.4575ZM39.7563 20.9903L24.8875 29.58L40 38.3102L55.1125 29.58L40.2438 20.9903C40.1696 20.9475 40.0856 20.9249 40 20.9249C39.9144 20.9249 39.8304 20.9475 39.7563 20.9903ZM41.4625 58.3053L56.3313 49.7156C56.4052 49.6729 56.4667 49.6114 56.5094 49.5375C56.5522 49.4635 56.5748 49.3796 56.575 49.2941V32.1147L41.4625 40.8449V58.3053ZM23.425 32.1167V49.2941C23.425 49.4697 23.5186 49.6297 23.6688 49.7156L38.5375 58.3053V40.8469L23.425 32.1167Z" fill="#465FFF"/>
</svg>
