<svg width="80" height="80" viewBox="0 0 80 80" fill="none" xmlns="http://www.w3.org/2000/svg">
<rect width="80" height="80" fill="#F2F4F7"/>
<path d="M40 22.125C40.7594 22.125 41.375 22.7406 41.375 23.5V25.8496C43.8581 26.0543 46.1283 26.8067 47.8877 27.9678C49.9563 29.3329 51.458 31.3745 51.458 33.8213C51.4578 34.5805 50.8423 35.1963 50.083 35.1963C49.3239 35.1961 48.7082 34.5804 48.708 33.8213C48.708 32.5932 47.9536 31.3069 46.373 30.2637C44.8031 29.2276 42.5536 28.542 40 28.542C37.4464 28.542 35.1969 29.2276 33.627 30.2637C32.0464 31.3069 31.292 32.5932 31.292 33.8213C31.292 34.5683 31.4311 35.1539 31.6777 35.6221C31.9206 36.083 32.3063 36.5045 32.918 36.873C34.1949 37.6424 36.4061 38.1494 40 38.1494C43.7298 38.1494 46.7843 38.6231 48.9424 39.8818C50.0491 40.5274 50.9288 41.3847 51.5215 42.4795C52.1106 43.5677 52.375 44.8132 52.375 46.1787C52.375 49.109 50.9085 51.2093 48.5684 52.4941C46.6404 53.5526 44.1379 54.0566 41.375 54.1777V56.5C41.375 57.2594 40.7594 57.875 40 57.875C39.2406 57.875 38.625 57.2594 38.625 56.5V54.166C35.8019 53.9969 33.3031 53.307 31.3965 52.1855C29.1868 50.8857 27.6251 48.8965 27.625 46.417C27.625 45.6576 28.2406 45.042 29 45.042C29.7594 45.042 30.375 45.6576 30.375 46.417C30.3751 47.6039 31.1052 48.8228 32.791 49.8145C34.476 50.8056 36.9691 51.458 40 51.458C43.1123 51.458 45.5915 50.9903 47.2441 50.083C48.7997 49.229 49.625 48.0015 49.625 46.1787C49.625 45.1682 49.4308 44.3939 49.1035 43.7891C48.7796 43.1907 48.2841 42.6806 47.5576 42.2568C46.049 41.3768 43.6034 40.8994 40 40.8994C36.2606 40.8994 33.4305 40.3922 31.499 39.2285C30.5067 38.6306 29.7461 37.8562 29.2441 36.9033C28.7461 35.9577 28.542 34.9115 28.542 33.8213C28.542 31.3745 30.0437 29.3329 32.1123 27.9678C33.8717 26.8067 36.1419 26.0543 38.625 25.8496V23.5C38.625 22.7406 39.2406 22.125 40 22.125Z" fill="#465FFF"/>
</svg>
