<svg width="80" height="80" viewBox="0 0 80 80" fill="none" xmlns="http://www.w3.org/2000/svg">
<rect width="80" height="80" fill="#F2F4F7"/>
<path d="M44.8057 21.8871C45.1863 21.2393 46.0165 21.0171 46.6699 21.3881L53.0205 24.9935C53.3405 25.1752 53.5746 25.478 53.6699 25.8334C53.7652 26.189 53.7147 26.5686 53.5283 26.8861C51.4411 30.4414 54.1071 35.0197 58.333 35.0199C59.0924 35.0199 59.708 35.6355 59.708 36.3949V43.6058C59.708 44.3652 59.0924 44.9808 58.333 44.9808C54.1082 44.9811 51.4428 49.5586 53.5303 53.1146C53.7166 53.432 53.768 53.8109 53.6729 54.1664C53.5776 54.522 53.3436 54.8245 53.0234 55.0062L46.6729 58.6127C46.0193 58.9836 45.1891 58.7608 44.8086 58.1127C42.6544 54.4435 37.3487 54.4435 35.1943 58.1127C34.8138 58.7608 33.9837 58.9836 33.3301 58.6127L26.9795 55.0072C26.6595 54.8255 26.4254 54.5227 26.3301 54.1674C26.2348 53.8118 26.2853 53.4321 26.4717 53.1146C28.559 49.5593 25.8929 44.9811 21.667 44.9808C20.9076 44.9808 20.292 44.3652 20.292 43.6058L20.292 36.3949C20.292 35.6355 20.9076 35.0199 21.667 35.0199C25.894 35.0197 28.5615 30.4397 26.4746 26.8851C26.2885 26.5678 26.2378 26.1888 26.333 25.8334C26.4283 25.478 26.6615 25.1753 26.9814 24.9935L33.333 21.3881C33.9865 21.0171 34.8167 21.2392 35.1973 21.8871C37.3502 25.5543 42.6528 25.5541 44.8057 21.8871ZM46.3975 24.3959C43.1077 28.3851 36.8941 28.3852 33.6045 24.3959L29.4512 26.7533C31.2627 31.5346 28.0522 36.8253 23.042 37.6566L23.042 42.3431C28.0524 43.1744 31.2598 48.4657 29.4482 53.2465L33.6016 55.6049C36.8926 51.6132 43.1103 51.6132 46.4014 55.6049L50.5537 53.2465C48.7423 48.4663 51.9475 43.1744 56.958 42.3431V37.6566C51.9478 36.8253 48.7396 31.5348 50.5508 26.7543L46.3975 24.3959ZM45.5771 35.1976C45.893 34.9821 46.2843 34.9077 46.6572 34.9926C47.0301 35.0774 47.3505 35.3139 47.542 35.6449C48.2838 36.9272 48.708 38.4165 48.708 40.0004C48.7078 44.8097 44.8093 48.7084 40 48.7084C38.4478 48.7084 36.9865 48.3009 35.7217 47.5863C35.0605 47.2127 34.8266 46.3734 35.2002 45.7123C35.5738 45.0512 36.4131 44.8182 37.0742 45.1918C37.9372 45.6794 38.9339 45.9584 40 45.9584C43.2906 45.9584 45.9578 43.2909 45.958 40.0004C45.958 39.4499 45.8842 38.9172 45.7451 38.4125L44.4424 39.3021C43.8152 39.7303 42.9594 39.5689 42.5312 38.9418C42.1031 38.3146 42.2644 37.4588 42.8916 37.0306L45.5771 35.1976ZM40 31.2914C41.5522 31.2914 43.0135 31.6989 44.2783 32.4135C44.9395 32.787 45.1733 33.6263 44.7998 34.2875C44.4262 34.9486 43.5869 35.1816 42.9258 34.808C42.0628 34.3204 41.066 34.0414 40 34.0414C36.7093 34.0414 34.042 36.7097 34.042 40.0004C34.042 40.5507 34.1159 41.0827 34.2549 41.5873L35.5576 40.6976C36.1848 40.2695 37.0406 40.4309 37.4688 41.058C37.8969 41.6852 37.7356 42.541 37.1084 42.9691L34.4229 44.8021C34.107 45.0178 33.7157 45.092 33.3428 45.0072C32.9698 44.9224 32.6495 44.6859 32.458 44.3549C31.7163 43.0727 31.2921 41.5841 31.292 40.0004C31.292 35.1909 35.1905 31.2914 40 31.2914Z" fill="#465FFF"/>
</svg>
